<?xml version="1.0" encoding="UTF-8"?>
<svg width="23px" height="32px" viewBox="0 0 23 32" version="1.1" xmlns="http://www.w3.org/2000/svg" xmlns:xlink="http://www.w3.org/1999/xlink">
    <!-- Generator: Sketch 52.6 (67491) - http://www.bohemiancoding.com/sketch -->
    <title>HID</title>
    <desc>Created with Sketch.</desc>
    <g id="z" stroke="none" stroke-width="1" fill="none" fill-rule="evenodd">
        <g id="18" transform="translate(-301.000000, -477.000000)" fill="#106988">
            <path d="M320.417337,484.173071 L320.417337,480.836759 C320.417337,480.610862 320.345304,480.415377 320.201235,480.250298 C320.057166,480.085219 319.886561,480.002681 319.689414,480.002681 L305.130961,480.002681 C304.933814,480.002681 304.763209,480.085219 304.61914,480.250298 C304.475072,480.415377 304.403038,480.610862 304.403038,480.836759 L304.403038,484.173071 C304.403038,484.398968 304.475072,484.594454 304.61914,484.759532 C304.763209,484.924611 304.933814,485.007149 305.130961,485.007149 L319.689414,485.007149 C319.886561,485.007149 320.057166,484.924611 320.201235,484.759532 C320.345304,484.594454 320.417337,484.398968 320.417337,484.173071 Z M323.838084,479.287757 L323.838084,501.021448 C323.838084,506.025916 316.524159,509 312.419042,509 C308.589151,509 301,506.025916 301,501.021448 L301,479.287757 C301,478.668153 301.22639,478.131965 301.679178,477.679178 C302.131965,477.22639 302.668153,477 303.287757,477 L321.550327,477 C322.169931,477 322.706119,477.22639 323.158906,477.679178 C323.611694,478.131965 323.838084,478.668153 323.838084,479.287757 Z M307.899299,501.905894 C308.290459,501.525028 308.486035,501.06182 308.486035,500.516255 C308.486035,499.970691 308.293032,499.504909 307.907019,499.118897 C307.521007,498.732884 307.055225,498.539881 306.509661,498.539881 C305.964096,498.539881 305.498315,498.732884 305.112302,499.118897 C304.726289,499.504909 304.533286,499.970691 304.533286,500.516255 C304.533286,501.06182 304.726289,501.527601 305.112302,501.913614 C305.498315,502.299627 305.964096,502.49263 306.509661,502.49263 C307.055225,502.49263 307.518433,502.297053 307.899299,501.905894 Z M313.828423,501.905894 C314.219582,501.525028 314.415159,501.06182 314.415159,500.516255 C314.415159,499.970691 314.222156,499.504909 313.836143,499.118897 C313.450131,498.732884 312.984349,498.539881 312.438785,498.539881 C311.89322,498.539881 311.427439,498.732884 311.041426,499.118897 C310.655413,499.504909 310.46241,499.970691 310.46241,500.516255 C310.46241,501.06182 310.655413,501.527601 311.041426,501.913614 C311.427439,502.299627 311.89322,502.49263 312.438785,502.49263 C312.984349,502.49263 313.447557,502.297053 313.828423,501.905894 Z M307.899299,495.99221 C308.290459,495.601051 308.486035,495.132696 308.486035,494.587131 C308.486035,494.041567 308.293032,493.575785 307.907019,493.189773 C307.521007,492.80376 307.055225,492.610757 306.509661,492.610757 C305.964096,492.610757 305.498315,492.80376 305.112302,493.189773 C304.726289,493.575785 304.533286,494.041567 304.533286,494.587131 C304.533286,495.132696 304.726289,495.598477 305.112302,495.98449 C305.498315,496.370503 305.964096,496.563506 306.509661,496.563506 C307.055225,496.563506 307.518433,496.373076 307.899299,495.99221 Z M319.757547,501.905894 C320.148706,501.525028 320.344283,501.06182 320.344283,500.516255 C320.344283,499.970691 320.15128,499.504909 319.765267,499.118897 C319.379255,498.732884 318.913473,498.539881 318.367909,498.539881 C317.822344,498.539881 317.356563,498.732884 316.97055,499.118897 C316.584537,499.504909 316.391534,499.970691 316.391534,500.516255 C316.391534,501.06182 316.584537,501.527601 316.97055,501.913614 C317.356563,502.299627 317.822344,502.49263 318.367909,502.49263 C318.913473,502.49263 319.376681,502.297053 319.757547,501.905894 Z M313.828423,495.99221 C314.219582,495.601051 314.415159,495.132696 314.415159,494.587131 C314.415159,494.041567 314.222156,493.575785 313.836143,493.189773 C313.450131,492.80376 312.984349,492.610757 312.438785,492.610757 C311.89322,492.610757 311.427439,492.80376 311.041426,493.189773 C310.655413,493.575785 310.46241,494.041567 310.46241,494.587131 C310.46241,495.132696 310.655413,495.598477 311.041426,495.98449 C311.427439,496.370503 311.89322,496.563506 312.438785,496.563506 C312.984349,496.563506 313.447557,496.373076 313.828423,495.99221 Z M307.899299,490.063086 C308.290459,489.671927 308.486035,489.203572 308.486035,488.658007 C308.486035,488.112443 308.293032,487.646661 307.907019,487.260649 C307.521007,486.874636 307.055225,486.681633 306.509661,486.681633 C305.964096,486.681633 305.498315,486.874636 305.112302,487.260649 C304.726289,487.646661 304.533286,488.112443 304.533286,488.658007 C304.533286,489.203572 304.726289,489.669353 305.112302,490.055366 C305.498315,490.441379 305.964096,490.634382 306.509661,490.634382 C307.055225,490.634382 307.518433,490.443952 307.899299,490.063086 Z M319.757547,495.99221 C320.148706,495.601051 320.344283,495.132696 320.344283,494.587131 C320.344283,494.041567 320.15128,493.575785 319.765267,493.189773 C319.379255,492.80376 318.913473,492.610757 318.367909,492.610757 C317.822344,492.610757 317.356563,492.80376 316.97055,493.189773 C316.584537,493.575785 316.391534,494.041567 316.391534,494.587131 C316.391534,495.132696 316.584537,495.598477 316.97055,495.98449 C317.356563,496.370503 317.822344,496.563506 318.367909,496.563506 C318.913473,496.563506 319.376681,496.373076 319.757547,495.99221 Z M313.828423,490.063086 C314.219582,489.671927 314.415159,489.203572 314.415159,488.658007 C314.415159,488.112443 314.222156,487.646661 313.836143,487.260649 C313.450131,486.874636 312.984349,486.681633 312.438785,486.681633 C311.89322,486.681633 311.427439,486.874636 311.041426,487.260649 C310.655413,487.646661 310.46241,488.112443 310.46241,488.658007 C310.46241,489.203572 310.655413,489.669353 311.041426,490.055366 C311.427439,490.441379 311.89322,490.634382 312.438785,490.634382 C312.984349,490.634382 313.447557,490.443952 313.828423,490.063086 Z M319.757547,490.063086 C320.148706,489.671927 320.344283,489.203572 320.344283,488.658007 C320.344283,488.112443 320.15128,487.646661 319.765267,487.260649 C319.379255,486.874636 318.913473,486.681633 318.367909,486.681633 C317.822344,486.681633 317.356563,486.874636 316.97055,487.260649 C316.584537,487.646661 316.391534,488.112443 316.391534,488.658007 C316.391534,489.203572 316.584537,489.669353 316.97055,490.055366 C317.356563,490.441379 317.822344,490.634382 318.367909,490.634382 C318.913473,490.634382 319.376681,490.443952 319.757547,490.063086 Z" id="HID"></path>
        </g>
    </g>
</svg>