<?xml version="1.0" encoding="UTF-8"?>
<svg width="15px" height="23px" viewBox="0 0 15 23" version="1.1" xmlns="http://www.w3.org/2000/svg" xmlns:xlink="http://www.w3.org/1999/xlink">
    <!-- Generator: Sketch 52.6 (67491) - http://www.bohemiancoding.com/sketch -->
    <title></title>
    <desc>Created with Sketch.</desc>
    <g id="Annotations" stroke="none" stroke-width="1" fill="none" fill-rule="evenodd">
        <g id="HID--opt-1" transform="translate(-337.000000, -1399.000000)" fill="#616365">
            <g id="Group-2" transform="translate(156.000000, 1381.000000)">
                <path d="M190.064706,39.7508621 C190.394119,39.4336191 190.558824,39.0568987 190.558824,38.6206897 C190.558824,38.1844806 190.397551,37.8110648 190.075,37.500431 C189.752449,37.1897973 189.364708,37.0344828 188.911765,37.0344828 C188.458821,37.0344828 188.07108,37.1897973 187.748529,37.500431 C187.425979,37.8110648 187.264706,38.1844806 187.264706,38.6206897 C187.264706,39.0568987 187.425979,39.4303145 187.748529,39.7409483 C188.07108,40.051582 188.458821,40.2068966 188.911765,40.2068966 C189.364708,40.2068966 189.749018,40.0548866 190.064706,39.7508621 Z M193.852941,35.6795977 L193.852941,23.3204023 C193.852941,23.1682524 193.794084,23.0365861 193.676368,22.9253996 C193.558653,22.8142131 193.419255,22.7586207 193.25817,22.7586207 L183.74183,22.7586207 C183.580745,22.7586207 183.441347,22.8142131 183.323632,22.9253996 C183.205916,23.0365861 183.147059,23.1682524 183.147059,23.3204023 L183.147059,35.6795977 C183.147059,35.8317476 183.205916,35.9634139 183.323632,36.0746004 C183.441347,36.1857869 183.580745,36.2413793 183.74183,36.2413793 L193.25817,36.2413793 C193.419255,36.2413793 193.558653,36.1857869 193.676368,36.0746004 C193.794084,35.9634139 193.852941,35.8317476 193.852941,35.6795977 Z M190.284314,21.0024631 C190.467321,21.0024631 190.558824,20.9269301 190.558824,20.7758621 C190.558824,20.624794 190.467321,20.5492611 190.284314,20.5492611 L187.539216,20.5492611 C187.356208,20.5492611 187.264706,20.624794 187.264706,20.7758621 C187.264706,20.9269301 187.356208,21.0024631 187.539216,21.0024631 L190.284314,21.0024631 Z M195.5,20.3 L195.5,38.7 C195.5,39.3229198 195.2691,39.8619769 194.807292,40.3171875 C194.345484,40.7723981 193.798614,41 193.166667,41 L183.833333,41 C183.201386,41 182.654516,40.7723981 182.192708,40.3171875 C181.7309,39.8619769 181.5,39.3229198 181.5,38.7 L181.5,20.3 C181.5,19.6770802 181.7309,19.1380231 182.192708,18.6828125 C182.654516,18.2276019 183.201386,18 183.833333,18 L193.166667,18 C193.798614,18 194.345484,18.2276019 194.807292,18.6828125 C195.2691,19.1380231 195.5,19.6770802 195.5,20.3 Z" id=""></path>
            </g>
        </g>
    </g>
</svg>