<?xml version="1.0" encoding="UTF-8"?>
<svg width="16px" height="13px" viewBox="0 0 16 13" version="1.1" xmlns="http://www.w3.org/2000/svg" xmlns:xlink="http://www.w3.org/1999/xlink">
    <!-- Generator: Sketch 53 (72520) - https://sketchapp.com -->
    <title>tick</title>
    <desc>Created with Sketch.</desc>
    <g id="Symbols" stroke="none" stroke-width="1" fill="none" fill-rule="evenodd">
        <g id="Screens/Activation-pending" transform="translate(-661.000000, -694.000000)" fill="#106988" fill-rule="nonzero">
            <g transform="translate(333.000000, 195.000000)" id="Group-2">
                <g transform="translate(72.000000, 308.000000)">
                    <g id="Tick-list-02" transform="translate(255.000000, 119.000000)">
                        <path d="M16.5033482,74.5736607 C16.6908492,74.7611617 16.7845982,74.9888379 16.7845982,75.2566964 C16.7845982,75.5245549 16.6908492,75.7522312 16.5033482,75.9397321 L7.86495536,84.578125 C7.67745442,84.7656259 7.44977812,84.859375 7.18191964,84.859375 C6.91406116,84.859375 6.68638487,84.7656259 6.49888393,84.578125 L1.49665179,79.5758929 C1.30915085,79.3883919 1.21540179,79.1607156 1.21540179,78.8928571 C1.21540179,78.6249987 1.30915085,78.3973224 1.49665179,78.2098214 L2.86272321,76.84375 C3.05022415,76.6562491 3.27790045,76.5625 3.54575893,76.5625 C3.81361741,76.5625 4.04129371,76.6562491 4.22879464,76.84375 L7.18191964,79.8069196 L13.7712054,73.2075893 C13.9587063,73.0200883 14.1863826,72.9263393 14.4542411,72.9263393 C14.7220996,72.9263393 14.9497758,73.0200883 15.1372768,73.2075893 L16.5033482,74.5736607 Z" id="tick"></path>
                    </g>
                </g>
            </g>
        </g>
    </g>
</svg>