<?xml version="1.0" encoding="UTF-8"?>
<svg width="12px" height="12px" viewBox="0 0 12 12" version="1.1" xmlns="http://www.w3.org/2000/svg" xmlns:xlink="http://www.w3.org/1999/xlink">
    <!-- Generator: Sketch 53.2 (72643) - https://sketchapp.com -->
    <title></title>
    <desc>Created with Sketch.</desc>
    <defs>
        <path d="M10.03125,5.734375 C10.03125,5.58854094 9.98437547,5.46875047 9.890625,5.375 L9.1796875,4.671875 C9.08072867,4.57291617 8.96354234,4.5234375 8.828125,4.5234375 C8.69270766,4.5234375 8.57552133,4.57291617 8.4765625,4.671875 L5.2890625,7.8515625 L3.5234375,6.0859375 C3.42447867,5.98697867 3.30729234,5.9375 3.171875,5.9375 C3.03645766,5.9375 2.91927133,5.98697867 2.8203125,6.0859375 L2.109375,6.7890625 C2.01562453,6.88281297 1.96875,7.00260344 1.96875,7.1484375 C1.96875,7.2890632 2.01562453,7.40624953 2.109375,7.5 L4.9375,10.328125 C5.03645883,10.4270838 5.15364516,10.4765625 5.2890625,10.4765625 C5.4296882,10.4765625 5.54947867,10.4270838 5.6484375,10.328125 L9.890625,6.0859375 C9.98437547,5.99218703 10.03125,5.8750007 10.03125,5.734375 Z M11.1953125,3.9921875 C11.7317735,4.90885875 12,5.91145289 12,7 C12,8.08854711 11.7317735,9.09244332 11.1953125,10.0117188 C10.6588515,10.9309942 9.93099418,11.6588515 9.01171875,12.1953125 C8.09244332,12.7317735 7.08854711,13 6,13 C4.91145289,13 3.90755668,12.7317735 2.98828125,12.1953125 C2.06900582,11.6588515 1.34114852,10.9309942 0.8046875,10.0117188 C0.268226484,9.09244332 0,8.08854711 0,7 C0,5.91145289 0.268226484,4.90755668 0.8046875,3.98828125 C1.34114852,3.06900582 2.06900582,2.34114852 2.98828125,1.8046875 C3.90755668,1.26822648 4.91145289,1 6,1 C7.08854711,1 8.09244332,1.26822648 9.01171875,1.8046875 C9.93099418,2.34114852 10.6588515,3.07030789 11.1953125,3.9921875 Z" id="path-1"></path>
    </defs>
    <g id="Page-1" stroke="none" stroke-width="1" fill="none" fill-rule="evenodd">
        <g id="check-circle" transform="translate(0.000000, -1.000000)" fill-rule="nonzero">
            <g id="">
                <use fill="#000000" xlink:href="#path-1"></use>
                <use fill="#106988" xlink:href="#path-1"></use>
            </g>
        </g>
    </g>
</svg>